<svg t="1745244596872" class="icon" viewBox="0 0 1024 1024" version="1.1" xmlns="http://www.w3.org/2000/svg" p-id="6441" width="200" height="200"><path d="M416 612.730667c0-5.397333 0-167.365333 0-200.8384s0-33.473067 27.653333-17.533867c27.9008 16.081067 138.273067 80.017067 171.458133 98.984533 33.185067 18.968533 33.185067 18.968533 0 38.094933-31.390933 18.093867-152.359467 87.8176-165.9264 95.637333C416 646.203733 416 646.203733 416 612.730667z" fill="#f9f9f9" p-id="6442"></path><path d="M672 704l224 0 0 32-224 0 0-32Z" fill="#f9f9f9" p-id="6443"></path><path d="M672 608l192 0 0 32-192 0 0-32Z" fill="#f9f9f9" p-id="6444"></path><path d="M672 512l160 0 0 32-160 0 0-32Z" fill="#f9f9f9" p-id="6445"></path><path d="M864 224c0 32 0 224 0 224L672 448 672 224 320 224l0 576 544 0c0 32-32 32-32 32L160 832c0 0-32 0-32-32s0-544 0-576 32-32 32-32l0 32 128 0 0-32 416 0 0 32 128 0 0-32C832 192 864 192 864 224zM288 672 160 672l0 128 128 0L288 672zM288 480 160 480l0 128 128 0L288 480zM288 288 160 288l0 128 128 0L288 288zM832 288 704 288l0 128 128 0L832 288z" fill="#f9f9f9" p-id="6446"></path></svg>